PathFileType	4	(X/Y/Z)	C:/Users/beibeiliu/ov580/test_trc/User1\sequence.27_training_dense_left.trc
DataRate	CameraRate	NumFrames	NumMarkers	Units	OrigDataRate	OrigDataStartFrame	OrigNumFrames
120	120	23	19	mm	120	227	259
Frame#	Time	ThumbCMC			ThumbMCP			ThumbIP			ThumbTip			IndexMCP			IndexPIP			IndexTip			MiddleMCP			MiddlePIP			MiddleTip			RingMCP			RingPIP			RingTip			PinkyMCP			PinkyPIP			PinkyTip			BackHand1			BackHand2			BackHand3	
		X0	Y0	Z0	X1	Y1	Z1	X2	Y2	Z2	X3	Y3	Z3	X4	Y4	Z4	X5	Y5	Z5	X6	Y6	Z6	X7	Y7	Z7	X8	Y8	Z8	X9	Y9	Z9	X10	Y10	Z10	X11	Y11	Z11	X12	Y12	Z12	X13	Y13	Z13	X14	Y14	Z14	X15	Y15	Z15	X16	Y16	Z16	X17	Y17	Z17	X18	Y18	Z18	
226	1.88333	-187.005	-7.19902	35.0107	-159.996	-8.51929	7.83263	-146.308	-10.0597	-19.9336	-131.537	-24.8885	-39.1314	-213.528	-47.5761	-30.7045	-206.709	-52.6582	-61.2297	-188.662	-53.4283	-82.0712	-211.904	-75.7645	-28.2118	-206.891	-84.136	-62.1965	-190.013	-82.9269	-90.2566	-179.602	-83.5997	-26.1361	-151.282	-74.1679	-40.2533	-133.745	-50.844	-22.0585	-154.346	-90.0889	-4.9027	-134.305	-68.5933	-5.69283	-141.172	-45.0648	13.5837	-196.333	-82.1377	35.4951	-196.661	-68.3404	69.8388	-211.221	-45.2273	46.4062	
227	1.89167	-185.042	-8.93668	38.469	-159.64	-8.30177	8.98335	-146.183	-13.8241	-16.0078	-131.486	-25.8448	-36.4556	-214.425	-44.7776	-28.9612	-211.946	-48.856	-57.8236	-194.517	-51.5465	-84.7564	-213.313	-71.7893	-29.0555	-210.576	-79.492	-62.8165	-195.372	-81.5943	-91.4052	-177.33	-84.5419	-27.1093	-150.323	-69.0407	-41.1288	-131.678	-49.6493	-19.5406	-158.856	-87.6863	-2.70246	-136.106	-69.5919	-7.10633	-136.523	-44.7269	16.3326	-201.046	-77.3346	33.8381	-195.14	-69.0366	69.9732	-214.817	-41.4687	43.3922	
228	1.9	-185.042	-7.28618	39.2883	-158.106	-7.35525	12.1911	-144.916	-13.6317	-13.546	-128.507	-22.3239	-37.5965	-214.571	-44.7888	-31.1071	-212.665	-48.0738	-56.8931	-200.981	-49.7505	-85.7608	-213.434	-70.8752	-29.5168	-210.343	-77.8498	-60.7798	-197.485	-81.1877	-88.1804	-177.677	-83.4243	-21.8198	-150.202	-66.4689	-39.2157	-132.816	-49.5902	-21.6088	-157.633	-88.85	-1.71033	-134.8	-64.7034	-3.67261	-144.244	-44.4903	18.8354	-199.18	-78.3732	36.0812	-197.765	-67.9455	70.4883	-213.05	-40.0358	46.5476	
229	1.90833	-183.007	-8.32214	40.4183	-155.563	-6.72184	13.4091	-143.619	-13.9145	-12.4897	-128.888	-26.4499	-37.6055	-216.919	-36.3921	-27.935	-215.102	-41.8614	-55.724	-205.383	-46.895	-80.7157	-214.235	-64.6776	-26.5023	-213.38	-71.3641	-62.1257	-201.021	-77.7478	-87.3589	-177.578	-79.503	-25.0682	-147.359	-66.6709	-35.3355	-129.897	-48.0329	-12.0657	-157.049	-85.8678	-4.80815	-138.022	-67.8493	-5.24736	-141.144	-44.2065	21.7711	-199.933	-74.0668	36.2192	-197.075	-69.6148	71.926	-212.049	-42.537	44.6522	
230	1.91667	-180.201	-5.25971	41.7206	-154.701	-8.8872	9.80575	-142.351	-14.8158	-13.9894	-129.596	-28.4762	-35.9443	-216.412	-32.679	-25.5955	-215.616	-38.1007	-56.0013	-208.551	-44.5484	-82.1512	-214.527	-64.8546	-26.721	-214.562	-65.712	-59.7045	-203.42	-69.8608	-92.0151	-179.361	-71.8122	-24.6244	-147.954	-66.1207	-33.2248	-132.473	-45.8885	-11.2007	-161.113	-86.8127	-2.88716	-139.117	-63.6597	-1.52405	-144.688	-44.9227	24.5373	-203.966	-73.0433	34.011	-199.819	-63.1529	67.9003	-212.348	-37.9738	46.7712	
231	1.925	-178.477	-5.51974	39.9101	-151.467	-4.48429	8.52882	-141.693	-13.9967	-15.5517	-127.749	-25.8093	-35.9635	-216.758	-26.573	-27.7695	-217.051	-31.5541	-53.8458	-210.35	-42.5115	-84.0062	-217.015	-55.0588	-30.6321	-214.251	-60.5102	-62.3349	-205.397	-66.6216	-92.0708	-179.193	-70.4063	-25.0958	-147.416	-63.976	-29.4399	-133.977	-46.3807	-4.51493	-167.103	-82.7789	-2.42613	-142.711	-65.0269	-1.71841	-143.549	-44.9403	21.4609	-206.643	-68.2383	34.6365	-201.724	-62.4155	69.3275	-211.574	-33.3322	46.8561	
232	1.93333	-176.553	-3.41129	40.3493	-152.248	-8.69054	10.4709	-140.719	-12.3759	-14.6873	-128.547	-24.557	-33.7621	-217.101	-24.8366	-28.0758	-217.943	-26.6861	-53.8392	-212.597	-34.0529	-79.5981	-217.647	-55.9462	-30.8342	-215.948	-57.4952	-61.2434	-207.506	-64.1591	-87.1248	-177.887	-71.8974	-25.0739	-149.038	-59.1466	-28.7236	-134.818	-45.155	-0.748667	-166.567	-80.8831	-5.60264	-142.437	-65.3092	0.094743	-148.081	-43.3094	25.2	-206.465	-64.6044	37.0469	-201.284	-61.3766	69.9908	-210.691	-29.8172	50.3862	
233	1.94167	-174.686	-3.04803	44.705	-151.313	-6.55206	13.0414	-139.286	-9.83645	-13.0239	-130.509	-25.8798	-39.4279	-215.776	-21.8708	-25.4305	-218.858	-26.0778	-54.4034	-213.999	-34.7369	-80.4973	-217.086	-51.594	-27.9491	-216.214	-56.6782	-57.1358	-206.588	-63.8953	-91.1061	-183.279	-67.3183	-21.723	-148.393	-62.2407	-26.7598	-135.138	-42.9642	2.01892	-169.239	-81.5624	-3.99391	-145.009	-62.8118	0.897499	-147.317	-46.1273	24.182	-208.055	-68.3807	35.9359	-202.484	-61.0198	70.5434	-211.695	-30.0955	45.7739	
234	1.95	-175.556	-2.0741	40.6718	-149.907	-5.18949	13.7741	-140.845	-9.61977	-15.0833	-131.742	-24.1139	-34.4981	-217.206	-21.3037	-27.9667	-218.5	-25.7774	-56.1802	-214.752	-30.8789	-81.2069	-219.25	-51.1047	-31.7731	-216.364	-55.3257	-62.2321	-207.497	-61.6858	-89.5666	-179.286	-68.4347	-25.6115	-149.864	-59.9069	-26.5478	-135.941	-46.4443	3.13933	-171.112	-80.4344	-3.59194	-144.878	-66.0216	0.422498	-147.84	-43.713	25.0143	-209.937	-64.3901	33.8929	-205.032	-57.569	69.149	-211.949	-28.2067	47.5742	
235	1.95833	-173.891	-1.39508	45.4467	-149.99	-2.94667	12.2477	-138.789	-7.3652	-13.4017	-132.608	-23.7415	-36.1862	-217.072	-22.8586	-26.828	-218.753	-24.1533	-51.6287	-215.029	-29.735	-82.9193	-219.501	-52.6179	-32.2277	-217.53	-52.4837	-62.6991	-208.99	-61.3016	-89.6935	-180.967	-69.5606	-24.5282	-149.465	-59.7581	-26.0601	-135.996	-49.1333	0.120763	-170.357	-83.9695	-3.87565	-146.478	-65.7883	1.13192	-147.98	-46.2476	22.4432	-209.024	-64.5932	35.1655	-203.488	-60.9166	71.3618	-212.994	-23.9567	45.6055	
236	1.96667	-171.16	0.94061	43.9989	-146.792	-1.94282	12.8294	-137.925	-7.94126	-15.1262	-130.164	-23.0218	-37.1736	-216.073	-17.1432	-29.5214	-217.694	-23.2962	-53.3795	-215.563	-31.2255	-83.3651	-219.06	-46.9935	-27.9638	-217.824	-53.4407	-62.745	-210.637	-58.4258	-88.927	-185.694	-66.9919	-23.0203	-148.368	-62.3984	-24.7334	-136.803	-50.3151	2.36091	-173.84	-85.3291	-3.52165	-147.605	-65.7473	0.330471	-151.81	-45.0442	23.4952	-211.31	-59.4108	35.6192	-207.092	-59.3541	69.2576	-210.756	-24.8642	46.5441	
237	1.975	-172.646	-4.54325	41.5079	-147.629	-4.95791	9.56792	-140.008	-13.8703	-13.316	-130.279	-27.1234	-37.1009	-214.829	-14.9356	-29.7612	-216.097	-16.8956	-52.122	-214.347	-27.3315	-79.2173	-220.257	-42.4557	-31.7347	-218.793	-46.3197	-61.7016	-211.352	-57.0076	-91.2351	-186.154	-67.0217	-23.8815	-152.577	-62.3547	-27.8481	-138.003	-49.084	-0.879113	-175.659	-79.2411	-6.25735	-150.61	-70.1858	-2.43267	-152.387	-47.8076	25.8138	-211.637	-61.0288	33.9211	-208.881	-55.5814	66.8352	-210.8	-24.9966	47.8784	
238	1.98333	-169.167	0.0828434	43.2655	-145.117	-4.51007	13.1758	-137.106	-12.7655	-16.626	-133.601	-31.4162	-36.4209	-212.416	-9.93546	-26.9611	-215.044	-13.5912	-56.8927	-212.956	-18.7441	-81.9204	-219.957	-40.606	-32.224	-218.299	-47.8183	-61.9211	-211.209	-51.6986	-92.5806	-184.766	-63.2561	-25.9767	-153.595	-61.1133	-27.9475	-138.396	-50.3952	0.629281	-176.2	-81.7667	-6.70151	-151.67	-67.3236	-1.07324	-151.587	-49.5283	24.0859	-212.285	-55.17	34.3808	-210.58	-56.1136	66.002	-206.75	-20.0645	49.5603	
239	1.99167	-167.498	-0.270167	44.3927	-146.179	-7.71203	11.3478	-139.363	-17.1225	-16.6798	-135.72	-38.7461	-38.5661	-211.397	-11.9136	-27.3963	-213.184	-9.93772	-54.3241	-212.827	-18.3827	-82.7024	-219.636	-39.4229	-32.1943	-217.794	-46.1631	-61.3251	-211.005	-51.2499	-93.1672	-186.779	-64.8022	-24.6307	-151.417	-60.6339	-26.1383	-139.232	-53.6031	0.423448	-182.181	-79.1162	-5.81839	-150.955	-67.6475	-0.302042	-151.111	-49.8171	21.2916	-213.537	-56.8804	30.903	-209.624	-55.2413	69.3058	-208.763	-19.9606	47.5013	
240	2	-167.168	-2.1128	41.7317	-143.415	-6.76922	12.3817	-138.599	-18.5162	-17.1411	-140.75	-43.0346	-32.9093	-210.466	-11.1064	-27.7709	-213.322	-12.5044	-57.7133	-211.798	-15.7423	-79.5409	-219.514	-40.6023	-35.4548	-218.208	-42.6393	-59.3733	-211.696	-47.0442	-94.3654	-186.146	-60.4786	-26.701	-152.883	-60.4507	-27.0804	-139.151	-52.2753	3.99971	-177.271	-82.1967	-8.28552	-151.383	-69.9641	-0.744954	-153.334	-49.5677	23.9312	-214.83	-56.9416	32.5104	-207.851	-52.7182	65.7866	-208.632	-18.381	46.9995	
241	2.00833	-167.086	-4.91373	46.6481	-143.213	-8.31599	10.9977	-140.677	-21.4151	-19.8596	-141.075	-44.8939	-31.0442	-209.029	-8.015	-27.4115	-211.499	-9.29077	-53.4235	-210.53	-16.452	-79.9196	-219.045	-35.4255	-32.687	-217.825	-37.5933	-61.8705	-212.367	-44.3922	-91.9642	-186.083	-61.7106	-27.2207	-149.028	-62.382	-25.0278	-140.042	-50.3665	5.00533	-177.738	-81.8171	-7.25222	-150.933	-68.9357	1.4443	-153.387	-52.9903	27.172	-214.99	-55.9883	32.6136	-208.014	-55.2831	66.9261	-208.163	-21.6529	43.7117	
242	2.01667	-164.886	-2.78335	44.7279	-145.997	-11.4693	10.31	-139.874	-22.699	-17.8538	-142.211	-49.8588	-35.119	-208.04	-5.57487	-30.3303	-210.985	-9.11093	-56.0724	-210.4	-15.347	-82.5325	-218.101	-35.5866	-34.6225	-216.536	-34.8185	-64.2755	-212.479	-43.4258	-90.6518	-185.91	-64.9497	-26.4292	-150.48	-58.6567	-25.344	-139.961	-52.9914	7.57299	-178.518	-79.7286	-8.75804	-152.795	-67.5606	-0.943365	-154.468	-52.3733	28.8739	-213.673	-51.1643	31.0746	-207.34	-52.2114	67.2054	-207.569	-17.3147	44.5102	
243	2.025	-164.162	-3.91059	44.9827	-141.828	-10.1652	10.6554	-141.128	-25.4688	-16.4088	-142.368	-49.7897	-32.4411	-207.571	-7.45993	-28.9983	-210.155	-9.87682	-54.3308	-210.214	-12.3999	-82.6631	-216.525	-33.2461	-34.9613	-216.704	-37.235	-62.7901	-211.853	-44.978	-92.3757	-186.617	-63.1271	-24.019	-152.398	-60.3212	-27.2293	-140.48	-53.7477	8.57884	-177.745	-79.0791	-9.01567	-151.67	-70.6548	-0.622895	-154.672	-53.5199	25.9612	-213.314	-50.4112	27.6162	-208.773	-49.2957	65.3366	-206.893	-20.5696	46.3158	
244	2.03333	-163.173	-5.75779	43.1831	-139.506	-9.67448	10.9582	-139.394	-24.8672	-14.8365	-143.942	-52.6151	-33.8192	-204.546	-5.63825	-26.8328	-208.74	-8.37197	-52.7504	-207.517	-8.83295	-81.2379	-216.379	-31.7448	-34.9242	-215.422	-38.2451	-61.6864	-211.68	-43.5099	-91.889	-185.479	-60.4625	-26.2353	-149.203	-60.8835	-23.8195	-140.597	-56.712	8.24538	-181.241	-79.9052	-8.23258	-152.64	-74.1229	-2.33482	-152.755	-54.3381	26.0257	-213.498	-53.4952	31.2311	-210.475	-49.9646	63.6692	-202.374	-14.6743	47.3348	
245	2.04167	-160.559	-4.63374	46.6737	-138.998	-11.6962	6.8121	-136.953	-25.627	-15.6798	-141.957	-51.0739	-29.8815	-202.662	-5.28609	-29.4616	-205.125	-6.21441	-55.4795	-205.63	-7.82288	-82.575	-213.446	-29.2719	-32.2693	-213.417	-35.4359	-61.5794	-210.868	-42.3228	-92.2783	-185.381	-58.791	-27.9001	-150.529	-64.139	-24.3109	-141.25	-59.541	4.71812	-183.36	-81.5387	-7.84035	-154.53	-72.8181	-3.77992	-151.526	-54.7452	24.7992	-214.364	-50.2365	27.7287	-209.422	-48.6866	64.1189	-202.546	-14.0381	46.3374	
246	2.05	-157.733	-3.89725	43.8759	-138.635	-13.4541	7.11974	-136.84	-26.9953	-13.6943	-141.518	-51.4463	-30.3961	-200.487	-4.25247	-31.4664	-203.168	-4.35372	-58.009	-202.659	-12.1826	-83.8837	-212.876	-27.599	-34.7301	-211.892	-31.6513	-66.0796	-208.415	-35.1471	-92.7793	-188.229	-62.6913	-27.4261	-150.807	-61.9564	-27.4931	-141.616	-60.0012	4.86734	-181.619	-78.0733	-10.6754	-153.635	-71.6909	-2.58776	-151.007	-57.3976	20.4802	-214.153	-45.6779	26.1802	-208.484	-47.6533	65.4146	-202.046	-13.9612	41.98	
247	2.05833	-157.923	-7.33294	43.7728	-136.943	-17.1746	12.2772	-136.549	-29.449	-17.1771	-139.229	-51.0076	-31.3894	-196.448	0.708042	-30.5294	-198.907	-2.66222	-56.9629	-197.5	-7.65472	-83.4225	-211.578	-25.161	-35.9605	-210.786	-27.2585	-64.5286	-206.71	-34.8067	-97.4699	-190.818	-59.7881	-29.3968	-155.198	-68.8301	-31.0615	-141.667	-63.9368	0.112237	-186.779	-79.7371	-11.7167	-157.298	-74.4307	-7.68605	-149.242	-57.431	17.1373	-215.798	-47.9265	26.1894	-211.005	-46.3322	62.6081	-200.978	-15.1616	46.3218	
248	2.06667	-153.311	-6.85747	44.087	-132.907	-17.31	13.203	-129.932	-28.9641	-13.115	-135.046	-51.1027	-33.7267	-192.762	-1.58112	-28.5754	-193.489	-1.33409	-57.6626	-192.786	-10.0356	-84.4834	-211.806	-24.8232	-34.5913	-209.898	-22.7574	-67.0884	-206.156	-29.8939	-94.2791	-195.357	-55.0978	-30.9921	-162.387	-65.2208	-40.3513	-142.546	-67.1382	-15.3237	-193.391	-77.5605	-13.3262	-162.948	-78.8664	-14.3043	-146.999	-65.5532	13.0656	-214.02	-42.482	25.964	-211.42	-42.2786	63.1879	-196.543	-14.3197	45.2999	
